<?xml version="1.0" encoding="UTF-8"?>
<svg width="928" height="907" viewBox="0 0 928 907" xmlns="http://www.w3.org/2000/svg">
    <style>
        .theme { fill: black }
        @media (prefers-color-scheme: dark) {
            .theme { fill: white }
    }
    </style>
    <path id="path1" class="theme"  stroke="none" d="M 277.144287 234.607666 C 315.125092 265.370239 360.836182 286.963684 410.909668 296.02002 L 410.909668 34.355591 L 464.180023 3.599915 L 517.450378 34.35553 L 517.450378 296.02002 C 567.523865 286.963684 613.234985 265.370239 651.21582 234.607666 L 748.198608 290.600769 C 675.232971 362.762634 574.910034 407.319336 464.180023 407.319336 C 353.450043 407.319336 253.12706 362.762634 180.161377 290.600769 L 277.144287 234.607666 Z M 394.726013 902.833313 C 420.737213 803.562256 409.162964 694.401611 353.797974 598.506592 C 298.432983 502.611633 209.684265 438.007782 110.707397 410.89856 L 110.707397 522.884766 C 156.339005 540.395813 197.89502 569.186035 230.774765 608.022827 L 4.166691 738.855042 L 4.166691 800.366333 L 57.437065 831.122009 L 284.045135 700.289795 C 301.238861 748.182861 305.393951 798.566528 297.743164 846.840149 L 394.726013 902.833313 Z M 817.652649 410.89859 C 718.675781 438.007782 629.927063 502.611633 574.562073 598.506592 C 519.197021 694.401611 507.622833 803.562256 533.633972 902.833313 L 630.616882 846.84021 C 622.966064 798.566589 627.121155 748.182861 644.31488 700.289795 L 870.922974 831.122009 L 924.193298 800.366333 L 924.193298 738.855042 L 697.585327 608.022827 C 730.465027 569.186096 772.021057 540.395813 817.652649 522.884766 L 817.652649 410.89859 Z"/>
</svg>
