<?xml version="1.0" encoding="UTF-8"?>
<!-- Generated by Pixelmator Pro 3.7.1 -->
<svg width="4445" height="1234" viewBox="0 0 4445 1234" xmlns="http://www.w3.org/2000/svg">
    <g id="Layer-1">
        <g id="Group">
            <path id="Path" fill="none" stroke="none" d="M 4725.677734 1372.615234 L -311.883759 1373.389648 L -312.151917 -371.122803 L 4725.409668 -371.897217 L 4725.677734 1372.615234 Z"/>
            <path id="path1" fill="#f3ffff" stroke="none" d="M 383.565735 282.417419 C 421.5513 313.174194 467.265686 334.760559 517.340576 343.809204 L 517.300354 82.144775 L 570.565918 51.380859 L 623.841064 82.128296 L 623.881287 343.792847 C 673.953369 334.72876 719.661133 313.128357 757.637268 282.359924 L 854.628662 338.338074 C 781.674194 410.511169 681.357971 455.083313 570.627991 455.100342 C 459.89801 455.117371 359.568237 410.57605 286.591431 338.425415 L 383.565735 282.417419 Z M 501.250183 950.624939 C 527.246155 851.349976 515.65509 742.191101 460.27536 646.304565 C 404.89563 550.418152 316.136993 485.827942 217.155945 458.733948 L 217.173157 570.720093 C 262.807495 588.224182 304.367889 617.007996 337.253632 655.839722 L 110.665649 786.706726 L 110.675102 848.217957 L 163.950211 878.965576 L 390.538147 748.098511 C 407.739227 795.988892 411.902069 846.371948 404.258728 894.646851 L 501.250183 950.624939 Z M 924.101257 458.625244 C 825.128479 485.749634 736.389771 550.367249 681.039368 646.27063 C 625.689148 742.174194 614.131775 851.336609 640.158203 950.603638 L 737.132507 894.595642 C 729.474182 846.32312 733.621582 795.938843 750.807983 748.043091 L 977.436096 878.840576 L 1030.701782 848.076782 L 1030.692261 786.565308 L 804.064148 655.767944 C 836.937988 616.926147 878.489441 588.129517 924.118469 570.61145 L 924.101257 458.625244 Z M 2691.725098 338.055786 L 2744.235107 338.047729 L 2744.304199 786.30188 L 2691.794189 786.309937 L 2691.780518 698.673218 C 2653.140137 757.199707 2588.955811 795.290833 2511.213135 795.302795 C 2382.5 795.322571 2278.10498 690.959473 2278.085205 562.24646 C 2278.065186 433.533508 2382.428467 329.138245 2511.141602 329.118469 C 2588.884277 329.106506 2653.080322 367.17804 2691.73877 425.692505 L 2691.725098 338.055786 Z M 2691.759766 562.182861 C 2691.744385 462.286194 2611.046387 381.612854 2511.149658 381.628235 C 2411.253174 381.643616 2330.57959 462.341736 2330.594971 562.238403 C 2330.610107 662.13501 2411.308594 742.808472 2511.205078 742.793152 C 2611.101807 742.777832 2691.774902 662.079468 2691.759766 562.182861 Z M 3307.731201 184.914185 L 3255.226074 215.019348 L 3255.244873 337.969177 L 2988.213379 338.010193 L 2988.189941 184.963379 L 2935.684814 215.068481 L 2935.703613 338.018311 L 2865.263672 338.029114 L 2865.271484 388.617798 L 2935.711426 388.606995 L 2935.756836 683.814453 C 2935.765625 740.806641 2980.598145 786.265503 3037.590576 786.256775 L 3115.714844 786.244751 L 3115.706787 733.734985 L 3037.58252 733.747009 C 3010.687256 733.75116 2988.270752 711.341858 2988.266602 683.165955 L 2988.221191 388.598877 L 3255.252686 388.557861 L 3255.298096 683.76532 C 3255.306885 740.757507 3300.139404 786.216431 3356.491211 786.207764 L 3435.256104 786.195679 L 3435.248047 733.685913 L 3356.483154 733.697998 C 3330.228516 733.702026 3307.812012 711.292786 3307.807861 683.116882 L 3307.762451 388.549805 L 3435.194824 388.530212 L 3435.187012 337.941528 L 3307.754639 337.961121 L 3307.731201 184.914185 Z M 2114.145752 520.648071 L 2114.186768 786.398743 L 2166.696533 786.390625 L 2166.655518 520.640015 C 2166.638428 408.973328 2080.902832 329.184631 1975.157715 329.200867 C 1906.638672 329.211365 1844.216797 364.440979 1809.647949 436.166931 C 1774.417114 365.09198 1712.608765 329.241211 1644.730225 329.251648 C 1538.984985 329.267883 1453.273804 409.082947 1453.291016 520.749634 L 1453.331787 786.500305 L 1505.841675 786.492249 L 1505.800903 520.741577 C 1505.788208 438.075195 1567.993408 381.773193 1644.738281 381.761414 C 1721.483154 381.749634 1783.705688 438.032471 1783.718384 520.698853 L 1783.759155 786.449524 L 1836.268921 786.441467 L 1836.228149 520.690796 C 1836.215454 438.024414 1898.420898 381.722412 1975.165771 381.710632 C 2051.910645 381.698853 2114.133057 437.981689 2114.145752 520.648071 Z M 4283.034668 381.355835 L 4302.885742 381.352783 L 4302.877441 328.843018 L 4283.026367 328.846069 C 4177.28125 328.862366 4091.570068 408.677429 4091.587158 520.344116 L 4091.628174 786.094727 L 4144.138184 786.08667 L 4144.097656 520.335999 C 4144.084961 437.669617 4206.289551 381.367676 4283.034668 381.355835 Z M 3980.810791 561.984741 C 3980.811768 567.107605 3980.171875 572.870972 3980.172852 577.993896 L 3564.67749 578.0578 C 3573.108887 670.422729 3653.834961 742.617493 3758.632568 742.601379 C 3823.309326 742.591431 3874.53418 715.047913 3907.826416 672.778748 L 3953.936523 699.02655 C 3911.041016 757.306274 3842.52832 795.098145 3758.640625 795.111023 C 3619.041504 795.132507 3514.646484 690.769409 3514.626465 562.056396 C 3514.606689 433.343445 3618.969971 328.948181 3747.683105 328.928406 C 3875.755615 328.908691 3980.791016 433.27179 3980.810791 561.984741 Z M 3567.360352 527.468689 L 3928.042969 527.413269 C 3911.241943 444.12262 3835.191406 381.424683 3747.691162 381.438171 C 3659.625977 381.45166 3584.025391 444.172913 3567.360352 527.468689 Z"/>
        </g>
    </g>
    <path id="Specification" fill="#f3ffff" fill-rule="evenodd" stroke="none" d="M 3132.288086 914.872009 C 3151.104004 914.872009 3166.463867 920.679932 3178.368164 932.296021 C 3190.271973 943.912048 3196.224121 960.759888 3196.224121 982.839966 L 3196.224121 1075 L 3176.352051 1075 L 3176.352051 985.143982 C 3176.352051 968.055908 3172.080078 955.000061 3163.536133 945.976013 C 3154.991943 936.951965 3143.328125 932.440002 3128.543945 932.440002 C 3113.375977 932.440002 3101.280029 937.23999 3092.255859 946.839966 C 3083.231934 956.440063 3078.719971 970.55188 3078.719971 989.176025 L 3078.719971 1075 L 3058.560059 1075 L 3058.560059 917.752014 L 3078.719971 917.752014 L 3078.719971 944.536011 C 3083.711914 934.935913 3090.912109 927.592041 3100.319824 922.504028 C 3109.728027 917.416016 3120.383789 914.872009 3132.288086 914.872009 Z M 2948.255859 1077.303955 C 2933.471924 1077.303955 2920.176025 1073.992065 2908.368164 1067.368042 C 2896.560059 1060.744019 2887.248047 1051.33606 2880.432129 1039.144043 C 2873.615967 1026.951904 2870.208008 1012.696045 2870.208008 996.375977 C 2870.208008 980.055908 2873.664063 965.800049 2880.576172 953.608032 C 2887.488037 941.415894 2896.895996 932.008057 2908.800049 925.384033 C 2920.704102 918.76001 2934.047852 915.447998 2948.832031 915.447998 C 2963.616211 915.447998 2977.007813 918.76001 2989.008057 925.384033 C 3001.008057 932.008057 3010.416016 941.415894 3017.231934 953.608032 C 3024.047852 965.800049 3027.456055 980.055908 3027.456055 996.375977 C 3027.456055 1012.504089 3024 1026.711914 3017.087891 1039 C 3010.176025 1051.288086 3000.672119 1060.744019 2988.576172 1067.368042 C 2976.47998 1073.992065 2963.040039 1077.303955 2948.255859 1077.303955 Z M 2948.255859 1059.735962 C 2958.624023 1059.735962 2968.224121 1057.384033 2977.056152 1052.679932 C 2985.888184 1047.975952 2993.040039 1040.87207 2998.511963 1031.368042 C 3003.983887 1021.863953 3006.719971 1010.200073 3006.719971 996.375977 C 3006.719971 982.551941 3004.031982 970.888062 2998.656006 961.384033 C 2993.280029 951.879944 2986.176025 944.776001 2977.343994 940.072021 C 2968.511963 935.367981 2958.912109 933.015991 2948.543945 933.015991 C 2938.175781 933.015991 2928.576172 935.367981 2919.744141 940.072021 C 2910.912109 944.776001 2903.855957 951.879944 2898.576172 961.384033 C 2893.295898 970.888062 2890.656006 982.551941 2890.656006 996.375977 C 2890.656006 1010.200073 2893.295898 1021.863953 2898.576172 1031.368042 C 2903.855957 1040.87207 2910.864014 1047.975952 2919.600098 1052.679932 C 2928.335938 1057.384033 2937.887939 1059.735962 2948.255859 1059.735962 Z M 2829.312012 888.088013 C 2825.280029 888.088013 2821.823975 886.64801 2818.943848 883.768005 C 2816.063965 880.888 2814.624023 877.33606 2814.624023 873.112 C 2814.624023 868.887939 2816.063965 865.384033 2818.943848 862.599976 C 2821.823975 859.815979 2825.280029 858.424011 2829.312012 858.424011 C 2833.343994 858.424011 2836.799805 859.815979 2839.680176 862.599976 C 2842.560059 865.384033 2844 868.887939 2844 873.112 C 2844 877.33606 2842.560059 880.888 2839.680176 883.768005 C 2836.799805 886.64801 2833.343994 888.088013 2829.312012 888.088013 Z M 2839.39209 917.752014 L 2839.39209 1075 L 2819.231934 1075 L 2819.231934 917.752014 Z M 2748.671875 934.744019 L 2748.671875 1032.375977 C 2748.671875 1041.976074 2750.496094 1048.599976 2754.144043 1052.248047 C 2757.791992 1055.895996 2764.224121 1057.719971 2773.439941 1057.719971 L 2791.87207 1057.719971 L 2791.87207 1075 L 2770.271973 1075 C 2756.063965 1075 2745.503906 1071.687988 2738.592041 1065.063965 C 2731.679932 1058.439941 2728.224121 1047.544067 2728.224121 1032.375977 L 2728.224121 934.744019 L 2706.335938 934.744019 L 2706.335938 917.752014 L 2728.224121 917.752014 L 2728.224121 878.296021 L 2748.671875 878.296021 L 2748.671875 917.752014 L 2791.87207 917.752014 L 2791.87207 934.744019 Z M 2524.60791 996.088013 C 2524.60791 979.9599 2527.823975 965.800049 2534.255859 953.608032 C 2540.687988 941.415894 2549.615967 932.008057 2561.040039 925.384033 C 2572.464111 918.76001 2585.375977 915.447998 2599.775879 915.447998 C 2614.751953 915.447998 2627.664063 918.903931 2638.511963 925.81604 C 2649.360107 932.728027 2657.184082 941.559937 2661.983887 952.312012 L 2661.983887 917.752014 L 2682.144043 917.752014 L 2682.144043 1075 L 2661.983887 1075 L 2661.983887 1040.151978 C 2656.991943 1050.904053 2649.072021 1059.783936 2638.224121 1066.791992 C 2627.375977 1073.800049 2614.464111 1077.303955 2599.488037 1077.303955 C 2585.279785 1077.303955 2572.464111 1073.944092 2561.040039 1067.223999 C 2549.615967 1060.503906 2540.687988 1051 2534.255859 1038.712036 C 2527.823975 1026.42395 2524.60791 1012.216064 2524.60791 996.088013 Z M 2661.983887 996.375977 C 2661.983887 983.703918 2659.39209 972.568054 2654.208008 962.968018 C 2649.023926 953.36792 2641.968018 945.976013 2633.040039 940.791992 C 2624.111816 935.607971 2614.271973 933.015991 2603.52002 933.015991 C 2592.383789 933.015991 2582.399902 935.511963 2573.567871 940.504028 C 2564.73584 945.496033 2557.775879 952.743958 2552.687988 962.247986 C 2547.600098 971.752075 2545.056152 983.031921 2545.056152 996.088013 C 2545.056152 1008.952026 2547.600098 1020.231934 2552.687988 1029.927979 C 2557.775879 1039.624023 2564.73584 1047.015991 2573.567871 1052.104004 C 2582.399902 1057.192017 2592.383789 1059.735962 2603.52002 1059.735962 C 2614.271973 1059.735962 2624.111816 1057.144043 2633.040039 1051.959961 C 2641.968018 1046.776001 2649.023926 1039.384033 2654.208008 1029.783936 C 2659.39209 1020.18396 2661.983887 1009.048096 2661.983887 996.375977 Z M 2353.823975 996.375977 C 2353.823975 980.055908 2357.087891 965.800049 2363.615967 953.608032 C 2370.144043 941.415894 2379.167969 932.008057 2390.687988 925.384033 C 2402.208008 918.76001 2415.359863 915.447998 2430.144043 915.447998 C 2449.536133 915.447998 2465.52002 920.247925 2478.095947 929.848022 C 2490.672119 939.448059 2498.783936 952.503906 2502.432129 969.015991 L 2480.832031 969.015991 C 2478.144043 957.687927 2472.335938 948.808044 2463.407959 942.375977 C 2454.47998 935.94397 2443.39209 932.728027 2430.144043 932.728027 C 2419.583984 932.728027 2410.080078 935.127991 2401.63208 939.927979 C 2393.184082 944.728027 2386.511963 951.879944 2381.615967 961.384033 C 2376.719971 970.888062 2374.271973 982.551941 2374.271973 996.375977 C 2374.271973 1010.200073 2376.719971 1021.911987 2381.615967 1031.511963 C 2386.511963 1041.112061 2393.184082 1048.312012 2401.63208 1053.112061 C 2410.080078 1057.911987 2419.583984 1060.312012 2430.144043 1060.312012 C 2443.39209 1060.312012 2454.47998 1057.096069 2463.407959 1050.664063 C 2472.335938 1044.231934 2478.144043 1035.256104 2480.832031 1023.735962 L 2502.432129 1023.735962 C 2498.783936 1039.864014 2490.624023 1052.823975 2477.952148 1062.615967 C 2465.279785 1072.408081 2449.344238 1077.303955 2430.144043 1077.303955 C 2415.359863 1077.303955 2402.208008 1073.992065 2390.687988 1067.368042 C 2379.167969 1060.744019 2370.144043 1051.33606 2363.615967 1039.144043 C 2357.087891 1026.951904 2353.823975 1012.696045 2353.823975 996.375977 Z M 2312.927979 888.088013 C 2308.895996 888.088013 2305.439941 886.64801 2302.560059 883.768005 C 2299.679932 880.888 2298.23999 877.33606 2298.23999 873.112 C 2298.23999 868.887939 2299.679932 865.384033 2302.560059 862.599976 C 2305.439941 859.815979 2308.895996 858.424011 2312.927979 858.424011 C 2316.959961 858.424011 2320.416016 859.815979 2323.295898 862.599976 C 2326.176025 865.384033 2327.615967 868.887939 2327.615967 873.112 C 2327.615967 877.33606 2326.176025 880.888 2323.295898 883.768005 C 2320.416016 886.64801 2316.959961 888.088013 2312.927979 888.088013 Z M 2323.008057 917.752014 L 2323.008057 1075 L 2302.848145 1075 L 2302.848145 917.752014 Z M 2276.927979 934.744019 L 2240.352051 934.744019 L 2240.352051 1075 L 2220.191895 1075 L 2220.191895 934.744019 L 2198.303955 934.744019 L 2198.303955 917.752014 L 2220.191895 917.752014 L 2220.191895 906.807983 C 2220.191895 889.71991 2224.560059 877.144043 2233.295898 869.079956 C 2242.031982 861.015991 2256.191895 856.984009 2275.775879 856.984009 L 2275.775879 874.264038 C 2262.719971 874.264038 2253.552002 876.76001 2248.271973 881.752014 C 2242.991943 886.744019 2240.352051 895.095947 2240.352051 906.807983 L 2240.352051 917.752014 L 2276.927979 917.752014 Z M 2164.895996 888.088013 C 2160.864014 888.088013 2157.407959 886.64801 2154.528076 883.768005 C 2151.647949 880.888 2150.208008 877.33606 2150.208008 873.112 C 2150.208008 868.887939 2151.647949 865.384033 2154.528076 862.599976 C 2157.407959 859.815979 2160.864014 858.424011 2164.895996 858.424011 C 2168.927979 858.424011 2172.384033 859.815979 2175.263916 862.599976 C 2178.144043 865.384033 2179.583984 868.887939 2179.583984 873.112 C 2179.583984 877.33606 2178.144043 880.888 2175.263916 883.768005 C 2172.384033 886.64801 2168.927979 888.088013 2164.895996 888.088013 Z M 2174.976074 917.752014 L 2174.976074 1075 L 2154.815918 1075 L 2154.815918 917.752014 Z M 1974.815918 996.375977 C 1974.815918 980.055908 1978.079956 965.800049 1984.60791 953.608032 C 1991.135986 941.415894 2000.159912 932.008057 2011.679932 925.384033 C 2023.200073 918.76001 2036.351929 915.447998 2051.135986 915.447998 C 2070.528076 915.447998 2086.511963 920.247925 2099.087891 929.848022 C 2111.664063 939.448059 2119.775879 952.503906 2123.424072 969.015991 L 2101.823975 969.015991 C 2099.135986 957.687927 2093.328125 948.808044 2084.399902 942.375977 C 2075.471924 935.94397 2064.384033 932.728027 2051.135986 932.728027 C 2040.575928 932.728027 2031.072021 935.127991 2022.624023 939.927979 C 2014.176025 944.728027 2007.504028 951.879944 2002.60791 961.384033 C 1997.711914 970.888062 1995.263916 982.551941 1995.263916 996.375977 C 1995.263916 1010.200073 1997.711914 1021.911987 2002.60791 1031.511963 C 2007.504028 1041.112061 2014.176025 1048.312012 2022.624023 1053.112061 C 2031.072021 1057.911987 2040.575928 1060.312012 2051.135986 1060.312012 C 2064.384033 1060.312012 2075.471924 1057.096069 2084.399902 1050.664063 C 2093.328125 1044.231934 2099.135986 1035.256104 2101.823975 1023.735962 L 2123.424072 1023.735962 C 2119.775879 1039.864014 2111.616211 1052.823975 2098.943848 1062.615967 C 2086.271973 1072.408081 2070.336182 1077.303955 2051.135986 1077.303955 C 2036.351929 1077.303955 2023.200073 1073.992065 2011.679932 1067.368042 C 2000.159912 1060.744019 1991.135986 1051.33606 1984.60791 1039.144043 C 1978.079956 1026.951904 1974.815918 1012.696045 1974.815918 996.375977 Z M 1952.927979 988.312012 C 1952.927979 995.223999 1952.736084 1000.503967 1952.352051 1004.151978 L 1821.887939 1004.151978 C 1822.463989 1016.05603 1825.343994 1026.231934 1830.528076 1034.679932 C 1835.712036 1043.128052 1842.527954 1049.511963 1850.976074 1053.832031 C 1859.424072 1058.151978 1868.639893 1060.312012 1878.624023 1060.312012 C 1891.680054 1060.312012 1902.671997 1057.144043 1911.599976 1050.807983 C 1920.528076 1044.471924 1926.432007 1035.928101 1929.312012 1025.176025 L 1950.624023 1025.176025 C 1946.783936 1040.536133 1938.57605 1053.063965 1926 1062.76001 C 1913.42395 1072.456055 1897.63208 1077.303955 1878.624023 1077.303955 C 1863.839966 1077.303955 1850.592041 1073.992065 1838.880005 1067.368042 C 1827.167969 1060.744019 1818 1051.33606 1811.375977 1039.144043 C 1804.751953 1026.951904 1801.439941 1012.696045 1801.439941 996.375977 C 1801.439941 980.055908 1804.703979 965.752075 1811.231934 953.463989 C 1817.76001 941.175903 1826.879883 931.768066 1838.592041 925.23999 C 1850.304077 918.711975 1863.647949 915.447998 1878.624023 915.447998 C 1893.600098 915.447998 1906.703979 918.711975 1917.936035 925.23999 C 1929.168091 931.768066 1937.807983 940.551941 1943.855957 951.59198 C 1949.904053 962.63208 1952.927979 974.871948 1952.927979 988.312012 Z M 1932.47998 987.735962 C 1932.671997 976.023926 1930.320068 966.040039 1925.424072 957.783997 C 1920.527954 949.527954 1913.856079 943.288025 1905.407959 939.063965 C 1896.959961 934.839966 1887.744019 932.728027 1877.76001 932.728027 C 1862.783936 932.728027 1850.016113 937.527954 1839.456055 947.127991 C 1828.895996 956.728027 1823.040039 970.263916 1821.887939 987.735962 L 1932.47998 987.735962 Z M 1641.887939 952.312012 C 1646.880005 941.751953 1654.799927 932.968018 1665.647949 925.959961 C 1676.496094 918.951965 1689.407959 915.447998 1704.384033 915.447998 C 1718.592041 915.447998 1731.407959 918.76001 1742.832031 925.384033 C 1754.256104 932.008057 1763.18396 941.415894 1769.615967 953.608032 C 1776.048096 965.800049 1779.264038 979.9599 1779.264038 996.088013 C 1779.264038 1012.216064 1776.048096 1026.42395 1769.615967 1038.712036 C 1763.18396 1051 1754.256104 1060.503906 1742.832031 1067.223999 C 1731.407959 1073.944092 1718.592041 1077.303955 1704.384033 1077.303955 C 1689.599976 1077.303955 1676.736084 1073.800049 1665.791992 1066.791992 C 1654.8479 1059.783936 1646.880005 1051 1641.887939 1040.439941 L 1641.887939 1149.303955 L 1622.015991 1149.303955 L 1622.015991 917.752014 L 1641.887939 917.752014 L 1641.887939 952.312012 Z M 1758.81604 996.088013 C 1758.81604 983.031921 1756.271973 971.752075 1751.18396 962.247986 C 1746.095947 952.743958 1739.135986 945.496033 1730.303955 940.504028 C 1721.471924 935.511963 1711.488037 933.015991 1700.352051 933.015991 C 1689.599976 933.015991 1679.76001 935.607971 1670.832031 940.791992 C 1661.903931 945.976013 1654.848022 953.36792 1649.664063 962.968018 C 1644.47998 972.568054 1641.887939 983.703918 1641.887939 996.375977 C 1641.887939 1009.048096 1644.47998 1020.18396 1649.664063 1029.783936 C 1654.848022 1039.384033 1661.903931 1046.776001 1670.832031 1051.959961 C 1679.76001 1057.144043 1689.599976 1059.735962 1700.352051 1059.735962 C 1711.488037 1059.735962 1721.471924 1057.192017 1730.303955 1052.104004 C 1739.135986 1047.015991 1746.095947 1039.624023 1751.18396 1029.927979 C 1756.271973 1020.231934 1758.81604 1008.952026 1758.81604 996.088013 Z M 1524.095947 1077.015991 C 1510.8479 1077.015991 1499.184082 1074.712036 1489.104004 1070.104004 C 1479.023926 1065.495972 1471.104004 1059.064087 1465.343994 1050.807983 C 1459.583984 1042.552002 1456.511963 1033.33606 1456.128052 1023.160034 L 1477.439941 1023.160034 C 1478.400024 1032.952026 1482.719971 1041.543945 1490.400024 1048.936035 C 1498.080078 1056.328003 1509.31189 1060.024048 1524.095947 1060.024048 C 1537.728027 1060.024048 1548.527954 1056.52002 1556.495972 1049.511963 C 1564.463989 1042.503906 1568.447998 1033.624023 1568.447998 1022.872009 C 1568.447998 1014.231934 1566.23999 1007.272034 1561.823975 1001.992004 C 1557.407959 996.711975 1551.936035 992.776001 1545.407959 990.184021 C 1538.880005 987.59198 1529.856079 984.76001 1518.335938 981.687988 C 1504.895996 978.039978 1494.23999 974.488037 1486.368042 971.031982 C 1478.495972 967.575989 1471.776001 962.200073 1466.208008 954.903992 C 1460.640015 947.607971 1457.855957 937.720093 1457.855957 925.23999 C 1457.855957 914.871948 1460.543945 905.608032 1465.920044 897.447998 C 1471.296021 889.287964 1478.880005 882.904053 1488.671997 878.296021 C 1498.464111 873.687988 1509.695923 871.384033 1522.368042 871.384033 C 1540.992065 871.384033 1556.015991 875.94397 1567.439941 885.063965 C 1578.864014 894.184082 1585.439941 905.94397 1587.167969 920.343994 L 1565.280029 920.343994 C 1563.936035 912.087952 1559.424072 904.744019 1551.744019 898.312012 C 1544.063965 891.880005 1533.696045 888.664001 1520.640015 888.664001 C 1508.543945 888.664001 1498.463989 891.880005 1490.400024 898.312012 C 1482.335938 904.744019 1478.303955 913.527954 1478.303955 924.664001 C 1478.303955 933.112061 1480.511963 939.927979 1484.927979 945.112 C 1489.343994 950.296021 1494.864014 954.231995 1501.488037 956.919983 C 1508.112061 959.608032 1517.087891 962.487976 1528.416016 965.559998 C 1541.472046 969.208008 1552.031982 972.807983 1560.095947 976.359985 C 1568.160034 979.911987 1574.975952 985.335938 1580.543945 992.632019 C 1586.112061 999.92804 1588.895996 1009.719971 1588.895996 1022.007996 C 1588.895996 1031.416016 1586.400024 1040.343994 1581.407959 1048.791992 C 1576.416016 1057.23999 1569.024048 1064.055908 1559.232056 1069.23999 C 1549.439941 1074.424072 1537.728027 1077.015991 1524.095947 1077.015991 Z"/>
    <path id="Line" fill="none" stroke="#f3ffff" stroke-width="4" d="M 1457 1026 L 1457.998901 1179"/>
    <path id="Line-copy" fill="none" stroke="#f3ffff" stroke-width="4" d="M 3194 1036 L 3195 1179"/>
    <g id="g1">
        <path id="path2" fill="none" stroke="#f3ffff" stroke-width="4" d="M 1470 1167 L 3183 1167"/>
        <path id="path3" fill="#f3ffff" stroke="none" d="M 1482 1155 L 1458 1167 L 1482 1179 Z"/>
        <path id="path4" fill="#f3ffff" stroke="none" d="M 3171 1179 L 3195 1167 L 3171 1155 Z"/>
    </g>
    <path id="path5" fill="none" stroke="#f3ffff" stroke-width="4" d="M 3131 917 L 3262 916"/>
    <path id="path6" fill="none" stroke="#f3ffff" stroke-width="4" d="M 3179 1074 L 3262 1074"/>
    <g id="Shape">
        <path id="path7" fill="none" stroke="#f3ffff" stroke-width="4" d="M 3250 928 L 3250 1062"/>
        <path id="path8" fill="#f3ffff" stroke="none" d="M 3262 940 L 3250 916 L 3238 940 Z"/>
        <path id="path9" fill="#f3ffff" stroke="none" d="M 3238 1050 L 3250 1074 L 3262 1050 Z"/>
    </g>
</svg>
