<?xml version="1.0" encoding="UTF-8"?>
<!-- Generated by Pixelmator Pro 3.6.18 -->
<svg width="5037" height="1744" viewBox="0 0 5037 1744" xmlns="http://www.w3.org/2000/svg">
    <g id="Layer-1">
        <g id="Group">
            <path id="Path" fill="none" stroke="none" d="M 5037.561523 1744 L 0 1744 L 0 -0.512451 L 5037.561523 -0.512451 L 5037.561523 1744 Z"/>
            <path id="path1" fill="#f3ffff" stroke="none" d="M 695.617188 653.134766 C 733.598022 683.897339 779.309082 705.490723 829.382568 714.547119 L 829.382568 452.88269 L 882.652893 422.126953 L 935.923279 452.882568 L 935.923279 714.547119 C 985.996765 705.490723 1031.707886 683.897339 1069.688721 653.134766 L 1166.671509 709.127808 C 1093.705933 781.289673 993.382874 825.846436 882.652893 825.846436 C 771.922913 825.846436 671.599976 781.289673 598.634277 709.127808 L 695.617188 653.134766 Z M 813.198914 1321.360352 C 839.210144 1222.089355 827.635864 1112.928711 772.270874 1017.033691 C 716.905884 921.138733 628.157166 856.534912 529.180298 829.425659 L 529.180298 941.411865 C 574.811951 958.922913 616.36792 987.713135 649.247681 1026.549927 L 422.639587 1157.38208 L 422.639587 1218.893311 L 475.909973 1249.64917 L 702.518005 1118.816895 C 719.711731 1166.709961 723.866821 1217.093628 716.216064 1265.36731 L 813.198914 1321.360352 Z M 1236.12561 829.425659 C 1137.148682 856.534851 1048.400024 921.138794 993.034912 1017.033691 C 937.669922 1112.928711 926.095764 1222.089355 952.106934 1321.360352 L 1049.089844 1265.36731 C 1041.438965 1217.093628 1045.594116 1166.709961 1062.787842 1118.816895 L 1289.395874 1249.64917 L 1342.66626 1218.893555 L 1342.66626 1157.38208 L 1116.058228 1026.549927 C 1148.937988 987.713135 1190.493896 958.922913 1236.12561 941.411865 L 1236.12561 829.425659 Z M 3003.768066 709.12793 L 3056.278076 709.12793 L 3056.278076 1157.38208 L 3003.768066 1157.38208 L 3003.768066 1069.745361 C 2965.118652 1128.265869 2900.928467 1166.347168 2823.185791 1166.347168 C 2694.472656 1166.347168 2590.093506 1061.968018 2590.093506 933.255005 C 2590.093506 804.542053 2694.472656 700.162842 2823.185791 700.162842 C 2900.928467 700.162842 2965.118652 738.244202 3003.768066 796.764648 L 3003.768066 709.12793 Z M 3003.768066 933.255005 C 3003.768066 833.358337 2923.08252 752.672607 2823.185791 752.672607 C 2723.289307 752.672607 2642.603271 833.358337 2642.603271 933.255005 C 2642.603271 1033.151611 2723.289307 1113.837524 2823.185791 1113.837524 C 2923.08252 1113.837524 3003.768066 1033.151611 3003.768066 933.255005 Z M 3619.797607 556.081055 L 3567.287842 586.178101 L 3567.287842 709.12793 L 3300.256348 709.12793 L 3300.256348 556.081055 L 3247.746582 586.178101 L 3247.746582 709.12793 L 3177.306641 709.12793 L 3177.306641 759.716614 L 3247.746582 759.716614 L 3247.746582 1054.924072 C 3247.746582 1111.91626 3292.572021 1157.38208 3349.564453 1157.38208 L 3427.688721 1157.38208 L 3427.688721 1104.872314 L 3349.564453 1104.872314 C 3322.669189 1104.872314 3300.256348 1082.459595 3300.256348 1054.283691 L 3300.256348 759.716614 L 3567.287842 759.716614 L 3567.287842 1054.924072 C 3567.287842 1111.91626 3612.113281 1157.38208 3668.465088 1157.38208 L 3747.22998 1157.38208 L 3747.22998 1104.872314 L 3668.465088 1104.872314 C 3642.210449 1104.872314 3619.797607 1082.459595 3619.797607 1054.283691 L 3619.797607 759.716614 L 3747.22998 759.716614 L 3747.22998 709.12793 L 3619.797607 709.12793 L 3619.797607 556.081055 Z M 2426.160645 891.631409 L 2426.160645 1157.38208 L 2478.67041 1157.38208 L 2478.67041 891.631409 C 2478.67041 779.964722 2392.947021 700.162842 2287.201904 700.162842 C 2218.682861 700.162842 2156.255615 735.382813 2121.675781 807.103455 C 2086.455811 736.023132 2024.652954 700.162842 1956.774414 700.162842 C 1851.029175 700.162842 1765.305786 779.964722 1765.305786 891.631409 L 1765.305786 1157.38208 L 1817.815674 1157.38208 L 1817.815674 891.631409 C 1817.815674 808.965027 1880.029541 752.672607 1956.774414 752.672607 C 2033.519287 752.672607 2095.733154 808.965027 2095.733154 891.631409 L 2095.733154 1157.38208 L 2148.24292 1157.38208 L 2148.24292 891.631409 C 2148.24292 808.965027 2210.457031 752.672607 2287.201904 752.672607 C 2363.946777 752.672607 2426.160645 808.965027 2426.160645 891.631409 Z M 4595.070801 752.672607 L 4614.921875 752.672607 L 4614.921875 700.162842 L 4595.070801 700.162842 C 4489.325684 700.162842 4403.602051 779.964722 4403.602051 891.631409 L 4403.602051 1157.38208 L 4456.112305 1157.38208 L 4456.112305 891.631409 C 4456.112305 808.965027 4518.325684 752.672607 4595.070801 752.672607 Z M 4292.819336 933.255005 C 4292.819336 938.377869 4292.178711 944.141174 4292.178711 949.264099 L 3876.68335 949.264099 C 3885.100586 1041.630371 3965.815674 1113.837524 4070.613281 1113.837524 C 4135.290039 1113.837524 4186.519043 1086.30188 4219.817871 1044.037842 L 4265.923828 1070.292725 C 4223.019531 1128.565796 4154.500977 1166.347168 4070.613281 1166.347168 C 3931.01416 1166.347168 3826.63501 1061.968018 3826.63501 933.255005 C 3826.63501 804.542053 3931.01416 700.162842 4059.727295 700.162842 C 4187.799805 700.162842 4292.819336 804.542053 4292.819336 933.255005 Z M 3879.374023 898.675415 L 4240.056641 898.675415 C 4223.268555 815.382202 4147.227539 752.672607 4059.727295 752.672607 C 3971.662109 752.672607 3896.052002 815.382202 3879.374023 898.675415 Z"/>
        </g>
    </g>
</svg>
