<?xml version="1.0" encoding="UTF-8"?>
<!-- Generated by Pixelmator Pro 3.6.18 -->
<svg width="4445" height="1234" viewBox="0 0 4445 1234" xmlns="http://www.w3.org/2000/svg">
    <g id="Layer-1">
        <g id="Group">
            <path id="Path" fill="none" stroke="none" d="M 4725.677734 1372.615234 L -311.883759 1373.389648 L -312.151917 -371.122803 L 4725.409668 -371.897217 L 4725.677734 1372.615234 Z"/>
            <path id="path1" fill="#131926" stroke="none" d="M 383.565735 282.417419 C 421.5513 313.174194 467.265686 334.760559 517.340576 343.809204 L 517.300354 82.144775 L 570.565918 51.380859 L 623.841064 82.128296 L 623.881287 343.792847 C 673.953369 334.72876 719.661133 313.128357 757.637268 282.359924 L 854.628662 338.338074 C 781.674194 410.511169 681.357971 455.083313 570.627991 455.100342 C 459.89801 455.117371 359.568237 410.57605 286.591431 338.425415 L 383.565735 282.417419 Z M 501.250183 950.624939 C 527.246155 851.349976 515.65509 742.191101 460.27536 646.304565 C 404.89563 550.418152 316.136993 485.827942 217.155945 458.733948 L 217.173157 570.720093 C 262.807495 588.224182 304.367889 617.007996 337.253632 655.839722 L 110.665649 786.706726 L 110.675102 848.217957 L 163.950211 878.965576 L 390.538147 748.098511 C 407.739227 795.988892 411.902069 846.371948 404.258728 894.646851 L 501.250183 950.624939 Z M 924.101257 458.625244 C 825.128479 485.749634 736.389771 550.367249 681.039368 646.27063 C 625.689148 742.174194 614.131775 851.336609 640.158203 950.603638 L 737.132507 894.595642 C 729.474182 846.32312 733.621582 795.938843 750.807983 748.043091 L 977.436096 878.840576 L 1030.701782 848.076782 L 1030.692261 786.565308 L 804.064148 655.767944 C 836.937988 616.926147 878.489441 588.129517 924.118469 570.61145 L 924.101257 458.625244 Z M 2691.725098 338.055786 L 2744.235107 338.047729 L 2744.304199 786.30188 L 2691.794189 786.309937 L 2691.780518 698.673218 C 2653.140137 757.199707 2588.955811 795.290833 2511.213135 795.302795 C 2382.5 795.322571 2278.10498 690.959473 2278.085205 562.24646 C 2278.065186 433.533508 2382.428467 329.138245 2511.141602 329.118469 C 2588.884277 329.106506 2653.080322 367.17804 2691.73877 425.692505 L 2691.725098 338.055786 Z M 2691.759766 562.182861 C 2691.744385 462.286194 2611.046387 381.612854 2511.149658 381.628235 C 2411.253174 381.643616 2330.57959 462.341736 2330.594971 562.238403 C 2330.610107 662.13501 2411.308594 742.808472 2511.205078 742.793152 C 2611.101807 742.777832 2691.774902 662.079468 2691.759766 562.182861 Z M 3307.731201 184.914185 L 3255.226074 215.019348 L 3255.244873 337.969177 L 2988.213379 338.010193 L 2988.189941 184.963379 L 2935.684814 215.068481 L 2935.703613 338.018311 L 2865.263672 338.029114 L 2865.271484 388.617798 L 2935.711426 388.606995 L 2935.756836 683.814453 C 2935.765625 740.806641 2980.598145 786.265503 3037.590576 786.256775 L 3115.714844 786.244751 L 3115.706787 733.734985 L 3037.58252 733.747009 C 3010.687256 733.75116 2988.270752 711.341858 2988.266602 683.165955 L 2988.221191 388.598877 L 3255.252686 388.557861 L 3255.298096 683.76532 C 3255.306885 740.757507 3300.139404 786.216431 3356.491211 786.207764 L 3435.256104 786.195679 L 3435.248047 733.685913 L 3356.483154 733.697998 C 3330.228516 733.702026 3307.812012 711.292786 3307.807861 683.116882 L 3307.762451 388.549805 L 3435.194824 388.530212 L 3435.187012 337.941528 L 3307.754639 337.961121 L 3307.731201 184.914185 Z M 2114.145752 520.648071 L 2114.186768 786.398743 L 2166.696533 786.390625 L 2166.655518 520.640015 C 2166.638428 408.973328 2080.902832 329.184631 1975.157715 329.200867 C 1906.638672 329.211365 1844.216797 364.440979 1809.647949 436.166931 C 1774.417114 365.09198 1712.608765 329.241211 1644.730225 329.251648 C 1538.984985 329.267883 1453.273804 409.082947 1453.291016 520.749634 L 1453.331787 786.500305 L 1505.841675 786.492249 L 1505.800903 520.741577 C 1505.788208 438.075195 1567.993408 381.773193 1644.738281 381.761414 C 1721.483154 381.749634 1783.705688 438.032471 1783.718384 520.698853 L 1783.759155 786.449524 L 1836.268921 786.441467 L 1836.228149 520.690796 C 1836.215454 438.024414 1898.420898 381.722412 1975.165771 381.710632 C 2051.910645 381.698853 2114.133057 437.981689 2114.145752 520.648071 Z M 4283.034668 381.355835 L 4302.885742 381.352783 L 4302.877441 328.843018 L 4283.026367 328.846069 C 4177.28125 328.862366 4091.570068 408.677429 4091.587158 520.344116 L 4091.628174 786.094727 L 4144.138184 786.08667 L 4144.097656 520.335999 C 4144.084961 437.669617 4206.289551 381.367676 4283.034668 381.355835 Z M 3980.810791 561.984741 C 3980.811768 567.107605 3980.171875 572.870972 3980.172852 577.993896 L 3564.67749 578.0578 C 3573.108887 670.422729 3653.834961 742.617493 3758.632568 742.601379 C 3823.309326 742.591431 3874.53418 715.047913 3907.826416 672.778748 L 3953.936523 699.02655 C 3911.041016 757.306274 3842.52832 795.098145 3758.640625 795.111023 C 3619.041504 795.132507 3514.646484 690.769409 3514.626465 562.056396 C 3514.606689 433.343445 3618.969971 328.948181 3747.683105 328.928406 C 3875.755615 328.908691 3980.791016 433.27179 3980.810791 561.984741 Z M 3567.360352 527.468689 L 3928.042969 527.413269 C 3911.241943 444.12262 3835.191406 381.424683 3747.691162 381.438171 C 3659.625977 381.45166 3584.025391 444.172913 3567.360352 527.468689 Z"/>
        </g>
    </g>
    <path id="Handbook" fill="#131926" fill-rule="evenodd" stroke="none" d="M 3317.892822 1139.895874 L 3230.353271 1044.60437 L 3230.36792 1139.909302 L 3203.137939 1139.913574 L 3203.09375 852.053528 L 3230.32373 852.049316 L 3230.349854 1022.431335 L 3315.915283 927.502197 L 3354.037354 927.496338 L 3253.30249 1033.319824 L 3354.8479 1139.890137 Z M 3054.109375 1143.048462 C 3034.140625 1143.051514 3016.181152 1138.580811 3000.230713 1129.63623 C 2984.280273 1120.69165 2971.700928 1107.986328 2962.491943 1091.52002 C 2953.282959 1075.053711 2948.677002 1055.799072 2948.673584 1033.755615 C 2948.670166 1011.712158 2953.335205 992.456177 2962.668701 975.986938 C 2972.002197 959.517822 2984.70752 946.808594 3000.784912 937.859131 C 3016.862061 928.909607 3034.88501 924.43335 3054.85376 924.430298 C 3074.82251 924.427246 3092.911377 928.897949 3109.121338 937.842407 C 3125.331055 946.786987 3138.040283 959.49231 3147.249268 975.958618 C 3156.458008 992.424927 3161.064209 1011.679565 3161.067627 1033.723022 C 3161.071045 1055.50708 3156.406006 1074.698242 3147.07251 1091.297119 C 3137.739014 1107.895996 3124.904053 1120.670044 3108.567383 1129.619507 C 3092.230469 1138.569092 3074.078125 1143.04541 3054.109375 1143.048462 Z M 3054.105713 1119.319458 C 3068.109863 1119.317261 3081.075928 1116.138428 3093.00415 1109.782959 C 3104.932617 1103.427368 3114.591309 1093.830688 3121.980469 1080.992432 C 3129.369385 1068.154297 3133.0625 1052.399414 3133.05957 1033.727295 C 3133.056641 1015.055176 3129.423584 999.301392 3122.1604 986.465454 C 3114.896973 973.629517 3105.300293 964.035767 3093.369873 957.683899 C 3081.439453 951.332031 3068.472656 948.157227 3054.468506 948.159363 C 3040.464355 948.161499 3027.498291 951.340332 3015.569824 957.695862 C 3003.641602 964.051392 2994.112549 973.648071 2986.98291 986.486206 C 2979.853027 999.324402 2976.289795 1015.079285 2976.29248 1033.751343 C 2976.29541 1052.423462 2979.86377 1068.177246 2986.997314 1081.013184 C 2994.131104 1093.849243 3003.598145 1103.442993 3015.398682 1109.794922 C 3027.199463 1116.146729 3040.101563 1119.321533 3054.105713 1119.319458 Z M 2812.109375 1143.085571 C 2792.140625 1143.088745 2774.181152 1138.618042 2758.230713 1129.67334 C 2742.280273 1120.72876 2729.700928 1108.02356 2720.491943 1091.557251 C 2711.282959 1075.09082 2706.677002 1055.836304 2706.673584 1033.792847 C 2706.670166 1011.74939 2711.335205 992.493347 2720.668701 976.02417 C 2730.002197 959.554993 2742.70752 946.845825 2758.784912 937.896301 C 2774.862061 928.946777 2792.88501 924.470581 2812.85376 924.467529 C 2832.82251 924.464417 2850.911377 928.93512 2867.121338 937.879639 C 2883.331055 946.824219 2896.040283 959.52948 2905.249268 975.995789 C 2914.458008 992.462158 2919.064209 1011.716736 2919.067627 1033.760254 C 2919.071045 1055.544312 2914.406006 1074.735474 2905.07251 1091.334351 C 2895.739014 1107.933228 2882.904053 1120.707153 2866.567383 1129.656738 C 2850.230469 1138.606323 2832.078125 1143.08252 2812.109375 1143.085571 Z M 2812.105713 1119.356567 C 2826.109863 1119.354492 2839.075928 1116.175659 2851.00415 1109.82019 C 2862.932617 1103.4646 2872.591309 1093.86792 2879.980469 1081.029663 C 2887.369385 1068.191528 2891.0625 1052.436523 2891.05957 1033.764526 C 2891.056641 1015.092407 2887.423584 999.338623 2880.1604 986.502686 C 2872.896973 973.666687 2863.300293 964.072998 2851.369873 957.721069 C 2839.439453 951.369263 2826.472656 948.194397 2812.468506 948.196533 C 2798.464355 948.19873 2785.498291 951.377563 2773.569824 957.733032 C 2761.641602 964.088623 2752.112549 973.685303 2744.98291 986.523438 C 2737.853027 999.361572 2734.289795 1015.116516 2734.29248 1033.788574 C 2734.29541 1052.460693 2737.86377 1068.214478 2744.997314 1081.050415 C 2752.131104 1093.886353 2761.598145 1103.480225 2773.398682 1109.832031 C 2785.199463 1116.18396 2798.101563 1119.358765 2812.105713 1119.356567 Z M 2490.953613 974.697998 C 2497.953125 959.914795 2508.77832 947.854248 2523.429443 938.515991 C 2538.080322 929.177734 2555.390137 924.50708 2575.358887 924.504028 C 2594.808838 924.500977 2612.18457 928.971802 2627.486816 937.916504 C 2642.789063 946.861206 2654.784912 959.566528 2663.475342 976.032959 C 2672.165283 992.49939 2676.512207 1011.624329 2676.515625 1033.408447 C 2676.518799 1055.192627 2672.177979 1074.383667 2663.49292 1090.982422 C 2654.807617 1107.581177 2642.750977 1120.419922 2627.321777 1129.499023 C 2611.892822 1138.578125 2594.583252 1143.119019 2575.392334 1143.12207 C 2555.164307 1143.125122 2537.723633 1138.524658 2523.069824 1129.320557 C 2508.416016 1120.116455 2497.716797 1108.124023 2490.97168 1093.343018 L 2490.979004 1140.022949 L 2464.137939 1140.0271 L 2464.09375 852.167114 L 2490.934814 852.162964 L 2490.953613 974.697998 Z M 2648.896484 1033.41272 C 2648.893799 1015.777954 2645.455322 1000.542847 2638.581055 987.706787 C 2631.706543 974.870789 2622.304443 965.08252 2610.374023 958.341675 C 2598.443604 951.600769 2584.957764 948.231567 2569.916504 948.233887 C 2555.393799 948.236084 2542.103516 951.739136 2530.045654 958.742981 C 2517.987549 965.746826 2508.45874 975.732544 2501.45874 988.700378 C 2494.458496 1001.668152 2490.959961 1016.7099 2490.962646 1033.825928 C 2490.965332 1050.942139 2494.468506 1065.982666 2501.472412 1078.948364 C 2508.476563 1091.914063 2518.008545 1101.896729 2530.068604 1108.896973 C 2542.128662 1115.897217 2555.419922 1119.396118 2569.942627 1119.393799 C 2584.984131 1119.391479 2598.46875 1115.953369 2610.397217 1109.079102 C 2622.325439 1102.204956 2631.724609 1092.219238 2638.595215 1079.121826 C 2645.465332 1066.024292 2648.89917 1050.788086 2648.896484 1033.41272 Z M 2196.673584 1033.482178 C 2196.670166 1011.69812 2201.075928 992.571777 2209.890625 976.102661 C 2218.705566 959.633606 2230.827393 946.924561 2246.256348 937.975098 C 2261.685303 929.025696 2279.124756 924.549561 2298.574707 924.546509 C 2317.246826 924.543701 2334.104004 929.079346 2349.146729 938.153809 C 2364.189697 947.228149 2375.213135 959.026001 2382.217285 973.547729 L 2382.19873 852.179688 L 2409.428711 852.175537 L 2409.4729 1140.035522 L 2382.24292 1140.039673 L 2382.235596 1092.581665 C 2375.754639 1107.364746 2365.123779 1119.490112 2350.343262 1128.95813 C 2335.5625 1138.426025 2318.188232 1143.161499 2298.219482 1143.164673 C 2278.769287 1143.167603 2261.328613 1138.631958 2245.896729 1129.557617 C 2230.465088 1120.483276 2218.404053 1107.648315 2209.713867 1091.052246 C 2201.023682 1074.456177 2196.676758 1055.266357 2196.673584 1033.482178 Z M 2382.226563 1033.842773 C 2382.223877 1016.726624 2378.720703 1001.685974 2371.716553 988.720337 C 2364.712646 975.754639 2355.180664 965.771851 2343.120605 958.771729 C 2331.060303 951.771545 2317.769287 948.272583 2303.246338 948.274841 C 2288.205078 948.277161 2274.720215 951.650513 2262.791992 958.395081 C 2250.863525 965.139648 2241.464355 974.930786 2234.593994 987.768921 C 2227.723633 1000.607056 2224.289795 1015.843201 2224.29248 1033.478027 C 2224.295166 1050.853394 2227.733643 1066.088501 2234.608154 1079.183838 C 2241.482422 1092.279297 2250.884766 1102.261963 2262.815186 1109.132568 C 2274.745605 1116.003052 2288.231445 1119.437134 2303.272705 1119.434814 C 2317.79541 1119.432617 2331.085693 1115.929565 2343.143555 1108.925659 C 2355.20166 1101.921875 2364.730469 1091.936157 2371.730469 1078.968262 C 2378.730469 1066.000488 2382.229248 1050.95874 2382.226563 1033.842773 Z M 2070.688721 923.803589 C 2096.103516 923.799683 2116.851074 931.641235 2132.932373 947.328491 C 2149.013428 963.015808 2157.056152 985.770813 2157.060791 1015.594299 L 2157.079834 1140.074341 L 2130.239014 1140.078491 L 2130.220215 1018.710449 C 2130.216797 995.629639 2124.443848 977.996033 2112.901611 965.809082 C 2101.359375 953.622192 2085.604004 947.530273 2065.635254 947.533386 C 2045.147827 947.536499 2028.811035 954.022339 2016.624268 966.990845 C 2004.437622 979.959473 1998.346191 999.02124 1998.350098 1024.176758 L 1998.36792 1140.098755 L 1971.137939 1140.102905 L 1971.105225 927.708862 L 1998.335205 927.704712 L 1998.34082 963.881714 C 2005.081543 950.91394 2014.804932 940.993042 2027.51123 934.118774 C 2040.217651 927.244385 2054.609863 923.80603 2070.688721 923.803589 Z M 1703.673584 1033.557983 C 1703.670166 1011.773926 1708.010986 992.647583 1716.696167 976.178467 C 1725.381348 959.709412 1737.438354 947.000366 1752.86731 938.050903 C 1768.296387 929.101563 1785.735718 924.625366 1805.185791 924.622437 C 1825.41394 924.619263 1842.854614 929.284546 1857.508423 938.618347 C 1872.162354 947.952148 1882.731812 959.879761 1889.217407 974.401489 L 1889.210327 927.721436 L 1916.440308 927.717285 L 1916.4729 1140.111328 L 1889.24292 1140.115479 L 1889.235718 1093.046509 C 1882.495239 1107.570313 1871.799683 1119.565918 1857.148682 1129.033936 C 1842.497803 1138.501831 1825.058472 1143.237305 1804.830444 1143.240479 C 1785.639648 1143.243408 1768.328613 1138.707764 1752.896851 1129.633423 C 1737.464966 1120.559082 1725.404175 1107.724121 1716.713867 1091.12793 C 1708.02356 1074.531982 1703.67688 1055.342163 1703.673584 1033.557983 Z M 1889.226563 1033.918457 C 1889.223999 1016.802368 1885.720703 1001.761719 1878.716675 988.796082 C 1871.712646 975.830444 1862.180664 965.847656 1850.120605 958.847534 C 1838.060425 951.84729 1824.769165 948.348389 1810.24646 948.350586 C 1795.205078 948.352905 1781.720337 951.726318 1769.791992 958.470825 C 1757.863647 965.215393 1748.464355 975.006592 1741.593994 987.844727 C 1734.723633 1000.6828 1731.289795 1015.919006 1731.29248 1033.553711 C 1731.295166 1050.929199 1734.733643 1066.164307 1741.608032 1079.259644 C 1748.482422 1092.35498 1757.884766 1102.337769 1769.815186 1109.208374 C 1781.745605 1116.078857 1795.231323 1119.512939 1810.272705 1119.51062 C 1824.795532 1119.508423 1838.085693 1116.005371 1850.143677 1109.001465 C 1862.20166 1101.997559 1871.730469 1092.011963 1878.730469 1079.044067 C 1885.730591 1066.076294 1889.229248 1051.034546 1889.226563 1033.918457 Z M 1661.987183 868.23938 L 1662.028931 1140.150391 L 1634.79895 1140.154541 L 1634.779419 1012.951599 L 1487.348389 1012.974243 L 1487.36792 1140.177246 L 1460.137939 1140.181396 L 1460.096069 868.270447 L 1487.326172 868.266235 L 1487.344849 990.412231 L 1634.775879 990.389587 L 1634.75708 868.243591 Z"/>
</svg>
